<svg width="40" height="44" viewBox="0 0 40 44" fill="none" xmlns="http://www.w3.org/2000/svg">
<path d="M19.3444 1.96188C19.6379 1.55917 19.9558 1.16867 20.0536 1.08324C20.1514 1.01002 20.3226 0.973413 20.4326 1.02223C20.5427 1.07104 20.9951 1.63239 21.4475 2.26696C21.8999 2.90148 22.6579 4.03624 23.147 4.76845L23.1471 4.76864C23.6362 5.51304 24.1131 6.39167 24.2109 6.72116C24.3087 7.06285 24.3821 7.47777 24.3821 7.67302C24.3821 7.85607 24.2843 8.20996 24.1742 8.45403C24.0519 8.6981 23.624 9.19843 23.2205 9.56453C22.817 9.93063 22.2545 10.3821 21.9733 10.5774C21.6798 10.7727 21.3497 10.9191 21.2396 10.9069C21.1174 10.8825 20.9462 10.6262 20.8117 10.2601C20.6894 9.93063 20.4693 9.47911 20.3104 9.27165C20.1636 9.05199 19.5034 8.42962 18.8308 7.86827C18.1217 7.25811 17.5347 6.66015 17.4002 6.39167C17.2657 6.13541 17.1679 5.81812 17.1679 5.68388C17.1679 5.54965 17.2902 5.18355 17.4491 4.86626C17.6081 4.53677 17.9749 3.92661 18.2684 3.48729C18.5618 3.04797 19.0509 2.36459 19.3444 1.96188Z" fill="#1E1E1E"/>
<path d="M10.4184 8.20996C10.4062 7.2459 10.4428 6.41608 10.504 6.37947C10.5651 6.33066 10.6752 6.29405 10.773 6.29405C10.8586 6.29405 11.2499 6.46489 11.6411 6.67235C12.0202 6.89201 12.387 7.09946 12.4604 7.14828C12.5337 7.19709 13.5731 7.74624 14.7836 8.36861C15.9941 8.99097 17.2657 9.67436 17.5959 9.88181C17.9382 10.1015 18.3295 10.431 18.464 10.6384C18.6108 10.8337 18.8186 11.1754 18.9287 11.395C19.0387 11.6025 19.161 12.1516 19.1977 12.6154C19.2466 13.0669 19.2466 14.0187 19.1977 14.7509C19.1365 15.8858 19.0998 16.0567 18.9164 16.0567C18.7942 16.0567 18.4518 15.9102 18.1461 15.7394C17.8404 15.5685 16.9601 15.0926 16.1897 14.6899C15.4194 14.275 14.0744 13.555 13.2062 13.0791C12.1302 12.4933 11.4944 12.054 11.2132 11.7245C10.9931 11.456 10.7241 10.9435 10.6263 10.6018C10.504 10.1869 10.4306 9.32046 10.4184 8.20996Z" fill="#1E1E1E"/>
<path d="M25.6293 11.1266C27.121 10.3333 28.6005 9.51572 28.9062 9.33267C29.2119 9.13741 29.5543 8.97877 29.6766 8.97877C29.7866 8.97877 29.9089 9.1008 29.9578 9.25945C29.9945 9.40589 30.0067 10.3821 29.9822 11.4194C29.9456 13.0547 29.9089 13.372 29.6888 13.7991C29.5421 14.0675 29.2119 14.4825 28.9429 14.7143C28.6739 14.9462 27.9892 15.3855 27.4267 15.6784C26.8643 15.9713 26.045 16.4106 25.6048 16.6546C25.1646 16.8987 24.59 17.216 24.3209 17.3502C24.0519 17.4967 23.3794 17.8384 22.8292 18.119C22.2667 18.3875 21.7043 18.6194 21.5698 18.6194C21.4231 18.6194 21.3008 18.5095 21.2519 18.3509C21.2152 18.1923 21.203 17.3258 21.2274 16.4228C21.2641 14.873 21.2886 14.7387 21.6309 14.0553C21.8388 13.6648 22.1934 13.1645 22.4502 12.957C22.6947 12.7496 24.1253 11.9198 25.6293 11.1266Z" fill="#1E1E1E"/>
<path d="M5.61302 15.1414C5.61302 13.5306 5.6497 12.115 5.69861 11.993C5.7842 11.7977 5.82089 11.7977 6.30998 11.993C6.60344 12.1028 7.60609 12.5909 8.5476 13.0791C9.48911 13.555 11.1398 14.4092 12.2158 14.9706C13.2918 15.5319 14.7836 16.3007 15.505 16.6668C16.3731 17.1062 17.0946 17.5699 17.5714 18.0092C18.0972 18.4973 18.4151 18.9367 19.1854 20.5109L19.161 23.5617C19.1488 25.2458 19.0876 26.6491 19.0387 26.7102C18.9898 26.759 18.3662 26.5027 17.657 26.1366C16.9478 25.7827 15.5172 25.0505 14.4779 24.5136C13.4386 23.9766 12.1669 23.3176 11.6656 23.0492C11.1643 22.7807 10.0393 22.1827 9.15897 21.7312C8.10741 21.1821 7.38599 20.7061 7.01917 20.34C6.71349 20.035 6.2733 19.3882 5.61302 18.0702V15.1414Z" fill="#1E1E1E"/>
<path d="M30.0678 16.7157C30.8137 16.3252 32.0731 15.6662 32.8801 15.2513C33.6871 14.8364 34.4452 14.4825 34.5675 14.4825C34.6776 14.4703 34.8365 14.5923 34.9099 14.7387C35.0077 14.934 35.0322 15.8614 34.9955 17.7041C34.9466 19.7055 34.8854 20.5475 34.7387 20.999C34.6287 21.3407 34.3596 21.8899 34.1273 22.2193C33.9072 22.561 33.3937 23.0736 32.9902 23.3787C32.5867 23.6837 31.4128 24.3549 30.3735 24.8919C29.3342 25.4166 28.4294 25.8925 28.356 25.9413C28.2826 25.9902 27.5979 26.3685 26.8276 26.759C26.0572 27.1617 24.6022 27.9183 23.5873 28.443C22.4257 29.041 21.6798 29.3583 21.5453 29.3095C21.3497 29.2484 21.3252 28.9922 21.3252 26.4661C21.3252 24.6234 21.3741 23.4763 21.4842 23.0736C21.5698 22.7441 21.8266 22.1461 22.0589 21.7556C22.3034 21.3651 22.7803 20.816 23.1593 20.5109C23.5262 20.218 24.6266 19.5712 25.6048 19.0709C26.583 18.5828 27.6835 18.0092 28.0503 17.8018C28.4171 17.5943 29.322 17.1184 30.0678 16.7157Z" fill="#1E1E1E"/>
<path d="M1.00329 23.9644C0.991062 20.8038 1.00329 20.5719 1.21116 20.4621C1.35788 20.3888 1.56575 20.4011 1.87144 20.5231C2.11598 20.6207 2.99636 21.0722 3.84005 21.5116C4.68374 21.9509 5.94316 22.622 6.65235 22.9881C7.36154 23.3542 7.99736 23.6959 8.0585 23.7448C8.13187 23.7936 9.28124 24.4037 10.6263 25.0871C11.9713 25.7705 13.6464 26.6369 14.3556 27.0152C15.0648 27.3813 15.9941 27.9427 16.4343 28.26C16.8745 28.5773 17.4125 29.0532 17.6448 29.3095C17.8771 29.5779 18.2317 30.1393 18.4273 30.5786C18.623 31.0179 18.8675 31.6159 18.9531 31.921C19.0754 32.3359 19.1243 33.4464 19.1243 36.5216C19.1243 40.0483 19.0998 40.5853 18.9409 40.5853C18.8431 40.5853 18.464 40.4022 18.1217 40.1704C17.7671 39.9507 16.6788 39.365 15.7006 38.889C14.7224 38.4009 13.8421 37.9738 13.7442 37.9128C13.6464 37.864 12.8761 37.4368 12.0324 36.9853C11.1887 36.5216 9.51356 35.643 8.30305 35.0328C7.09254 34.4104 5.66193 33.6782 5.12393 33.3976C4.58592 33.1047 3.95009 32.7264 3.70555 32.5555C3.47323 32.3725 3.00858 31.9332 2.7029 31.5793C2.38499 31.2376 1.99371 30.6518 1.83475 30.2979C1.68802 29.9562 1.51684 29.5535 1.46793 29.4193C1.41902 29.285 1.29675 28.7603 1.19893 28.26C1.07665 27.6254 1.01552 26.3196 1.00329 23.9644Z" fill="#1E1E1E"/>
<path d="M36.9641 24.0376C37.5999 23.7081 38.3336 23.3176 38.6148 23.1712C38.896 23.0248 39.1772 22.9149 39.2384 22.9393C39.3117 22.9637 39.3607 24.4403 39.3607 27.0518C39.3607 31.0789 39.3607 31.1399 39.055 32.043C38.8838 32.5433 38.5292 33.2755 38.2602 33.6782C37.9912 34.0931 37.4654 34.6667 37.0741 34.9718C36.6951 35.2769 36.1693 35.6308 35.9125 35.765C35.6558 35.8992 35.0322 36.2287 34.5308 36.5094C34.0295 36.7779 32.6234 37.5223 31.4128 38.1446C30.2023 38.767 28.9674 39.4138 28.6617 39.5846C28.356 39.7433 27.4512 40.2314 26.6442 40.6463C25.8371 41.0612 24.9812 41.5127 24.7489 41.647C24.5166 41.7812 23.7463 42.1961 23.0371 42.5744C22.3279 42.9527 21.6554 43.27 21.5453 43.27C21.4231 43.27 21.3008 43.1846 21.2641 43.087C21.2274 42.9893 21.2274 41.3297 21.2763 39.4016C21.313 37.4613 21.3864 35.5331 21.4597 35.0938C21.5331 34.5935 21.7532 33.9345 22.0711 33.3243C22.3401 32.7874 22.817 32.0796 23.1349 31.7623C23.4528 31.4328 23.9297 31.0179 24.1987 30.8349C24.4677 30.6518 25.1035 30.2735 25.6048 30.005C26.1061 29.7366 27.8669 28.8213 29.5176 27.9915C31.1683 27.1495 32.8434 26.283 33.247 26.0634C33.6505 25.8437 34.3352 25.4776 34.7754 25.2336C35.2156 25.0017 35.6313 24.7698 35.6924 24.721C35.7658 24.6722 36.3283 24.3549 36.9641 24.0376Z" fill="#1E1E1E"/>
<path d="M19.3444 1.96188C19.6379 1.55917 19.9558 1.16867 20.0536 1.08324C20.1514 1.01002 20.3226 0.973413 20.4326 1.02223C20.5427 1.07104 20.9951 1.63239 21.4475 2.26696C21.8999 2.90148 22.6579 4.03624 23.147 4.76845L23.1471 4.76864C23.6362 5.51304 24.1131 6.39167 24.2109 6.72116C24.3087 7.06285 24.3821 7.47777 24.3821 7.67302C24.3821 7.85607 24.2843 8.20996 24.1742 8.45403C24.0519 8.6981 23.624 9.19843 23.2205 9.56453C22.817 9.93063 22.2545 10.3821 21.9733 10.5774C21.6798 10.7727 21.3497 10.9191 21.2396 10.9069C21.1174 10.8825 20.9462 10.6262 20.8117 10.2601C20.6894 9.93063 20.4693 9.47911 20.3104 9.27165C20.1636 9.05199 19.5034 8.42962 18.8308 7.86827C18.1217 7.25811 17.5347 6.66015 17.4002 6.39167C17.2657 6.13541 17.1679 5.81812 17.1679 5.68388C17.1679 5.54965 17.2902 5.18355 17.4491 4.86626C17.6081 4.53677 17.9749 3.92661 18.2684 3.48729C18.5618 3.04797 19.0509 2.36459 19.3444 1.96188Z" stroke="#1E1E1E" stroke-width="0.239071"/>
<path d="M10.4184 8.20996C10.4062 7.2459 10.4428 6.41608 10.504 6.37947C10.5651 6.33066 10.6752 6.29405 10.773 6.29405C10.8586 6.29405 11.2499 6.46489 11.6411 6.67235C12.0202 6.89201 12.387 7.09946 12.4604 7.14828C12.5337 7.19709 13.5731 7.74624 14.7836 8.36861C15.9941 8.99097 17.2657 9.67436 17.5959 9.88181C17.9382 10.1015 18.3295 10.431 18.464 10.6384C18.6108 10.8337 18.8186 11.1754 18.9287 11.395C19.0387 11.6025 19.161 12.1516 19.1977 12.6154C19.2466 13.0669 19.2466 14.0187 19.1977 14.7509C19.1365 15.8858 19.0998 16.0567 18.9164 16.0567C18.7942 16.0567 18.4518 15.9102 18.1461 15.7394C17.8404 15.5685 16.9601 15.0926 16.1897 14.6899C15.4194 14.275 14.0744 13.555 13.2062 13.0791C12.1302 12.4933 11.4944 12.054 11.2132 11.7245C10.9931 11.456 10.7241 10.9435 10.6263 10.6018C10.504 10.1869 10.4306 9.32046 10.4184 8.20996Z" stroke="#1E1E1E" stroke-width="0.239071"/>
<path d="M25.6293 11.1266C27.121 10.3333 28.6005 9.51572 28.9062 9.33267C29.2119 9.13741 29.5543 8.97877 29.6766 8.97877C29.7866 8.97877 29.9089 9.1008 29.9578 9.25945C29.9945 9.40589 30.0067 10.3821 29.9822 11.4194C29.9456 13.0547 29.9089 13.372 29.6888 13.7991C29.5421 14.0675 29.2119 14.4825 28.9429 14.7143C28.6739 14.9462 27.9892 15.3855 27.4267 15.6784C26.8643 15.9713 26.045 16.4106 25.6048 16.6546C25.1646 16.8987 24.59 17.216 24.3209 17.3502C24.0519 17.4967 23.3794 17.8384 22.8292 18.119C22.2667 18.3875 21.7043 18.6194 21.5698 18.6194C21.4231 18.6194 21.3008 18.5095 21.2519 18.3509C21.2152 18.1923 21.203 17.3258 21.2274 16.4228C21.2641 14.873 21.2886 14.7387 21.6309 14.0553C21.8388 13.6648 22.1934 13.1645 22.4502 12.957C22.6947 12.7496 24.1253 11.9198 25.6293 11.1266Z" stroke="#1E1E1E" stroke-width="0.239071"/>
<path d="M5.61302 15.1414C5.61302 13.5306 5.6497 12.115 5.69861 11.993C5.7842 11.7977 5.82089 11.7977 6.30998 11.993C6.60344 12.1028 7.60609 12.5909 8.5476 13.0791C9.48911 13.555 11.1398 14.4092 12.2158 14.9706C13.2918 15.5319 14.7836 16.3007 15.505 16.6668C16.3731 17.1062 17.0946 17.5699 17.5714 18.0092C18.0972 18.4973 18.4151 18.9367 19.1854 20.5109L19.161 23.5617C19.1488 25.2458 19.0876 26.6491 19.0387 26.7102C18.9898 26.759 18.3662 26.5027 17.657 26.1366C16.9478 25.7827 15.5172 25.0505 14.4779 24.5136C13.4386 23.9766 12.1669 23.3176 11.6656 23.0492C11.1643 22.7807 10.0393 22.1827 9.15897 21.7312C8.10741 21.1821 7.38599 20.7061 7.01917 20.34C6.71349 20.035 6.2733 19.3882 5.61302 18.0702V15.1414Z" stroke="#1E1E1E" stroke-width="0.239071"/>
<path d="M30.0678 16.7157C30.8137 16.3252 32.0731 15.6662 32.8801 15.2513C33.6871 14.8364 34.4452 14.4825 34.5675 14.4825C34.6776 14.4703 34.8365 14.5923 34.9099 14.7387C35.0077 14.934 35.0322 15.8614 34.9955 17.7041C34.9466 19.7055 34.8854 20.5475 34.7387 20.999C34.6287 21.3407 34.3596 21.8899 34.1273 22.2193C33.9072 22.561 33.3937 23.0736 32.9902 23.3787C32.5867 23.6837 31.4128 24.3549 30.3735 24.8919C29.3342 25.4166 28.4294 25.8925 28.356 25.9413C28.2826 25.9902 27.5979 26.3685 26.8276 26.759C26.0572 27.1617 24.6022 27.9183 23.5873 28.443C22.4257 29.041 21.6798 29.3583 21.5453 29.3095C21.3497 29.2484 21.3252 28.9922 21.3252 26.4661C21.3252 24.6234 21.3741 23.4763 21.4842 23.0736C21.5698 22.7441 21.8266 22.1461 22.0589 21.7556C22.3034 21.3651 22.7803 20.816 23.1593 20.5109C23.5262 20.218 24.6266 19.5712 25.6048 19.0709C26.583 18.5828 27.6835 18.0092 28.0503 17.8018C28.4171 17.5943 29.322 17.1184 30.0678 16.7157Z" stroke="#1E1E1E" stroke-width="0.239071"/>
<path d="M1.00329 23.9644C0.991062 20.8038 1.00329 20.5719 1.21116 20.4621C1.35788 20.3888 1.56575 20.4011 1.87144 20.5231C2.11598 20.6207 2.99636 21.0722 3.84005 21.5116C4.68374 21.9509 5.94316 22.622 6.65235 22.9881C7.36154 23.3542 7.99736 23.6959 8.0585 23.7448C8.13187 23.7936 9.28124 24.4037 10.6263 25.0871C11.9713 25.7705 13.6464 26.6369 14.3556 27.0152C15.0648 27.3813 15.9941 27.9427 16.4343 28.26C16.8745 28.5773 17.4125 29.0532 17.6448 29.3095C17.8771 29.5779 18.2317 30.1393 18.4273 30.5786C18.623 31.0179 18.8675 31.6159 18.9531 31.921C19.0754 32.3359 19.1243 33.4464 19.1243 36.5216C19.1243 40.0483 19.0998 40.5853 18.9409 40.5853C18.8431 40.5853 18.464 40.4022 18.1217 40.1704C17.7671 39.9507 16.6788 39.365 15.7006 38.889C14.7224 38.4009 13.8421 37.9738 13.7442 37.9128C13.6464 37.864 12.8761 37.4368 12.0324 36.9853C11.1887 36.5216 9.51356 35.643 8.30305 35.0328C7.09254 34.4104 5.66193 33.6782 5.12393 33.3976C4.58592 33.1047 3.95009 32.7264 3.70555 32.5555C3.47323 32.3725 3.00858 31.9332 2.7029 31.5793C2.38499 31.2376 1.99371 30.6518 1.83475 30.2979C1.68802 29.9562 1.51684 29.5535 1.46793 29.4193C1.41902 29.285 1.29675 28.7603 1.19893 28.26C1.07665 27.6254 1.01552 26.3196 1.00329 23.9644Z" stroke="#1E1E1E" stroke-width="0.239071"/>
<path d="M36.9641 24.0376C37.5999 23.7081 38.3336 23.3176 38.6148 23.1712C38.896 23.0248 39.1772 22.9149 39.2384 22.9393C39.3117 22.9637 39.3607 24.4403 39.3607 27.0518C39.3607 31.0789 39.3607 31.1399 39.055 32.043C38.8838 32.5433 38.5292 33.2755 38.2602 33.6782C37.9912 34.0931 37.4654 34.6667 37.0741 34.9718C36.6951 35.2769 36.1693 35.6308 35.9125 35.765C35.6558 35.8992 35.0322 36.2287 34.5308 36.5094C34.0295 36.7779 32.6234 37.5223 31.4128 38.1446C30.2023 38.767 28.9674 39.4138 28.6617 39.5846C28.356 39.7433 27.4512 40.2314 26.6442 40.6463C25.8371 41.0612 24.9812 41.5127 24.7489 41.647C24.5166 41.7812 23.7463 42.1961 23.0371 42.5744C22.3279 42.9527 21.6554 43.27 21.5453 43.27C21.4231 43.27 21.3008 43.1846 21.2641 43.087C21.2274 42.9893 21.2274 41.3297 21.2763 39.4016C21.313 37.4613 21.3864 35.5331 21.4597 35.0938C21.5331 34.5935 21.7532 33.9345 22.0711 33.3243C22.3401 32.7874 22.817 32.0796 23.1349 31.7623C23.4528 31.4328 23.9297 31.0179 24.1987 30.8349C24.4677 30.6518 25.1035 30.2735 25.6048 30.005C26.1061 29.7366 27.8669 28.8213 29.5176 27.9915C31.1683 27.1495 32.8434 26.283 33.247 26.0634C33.6505 25.8437 34.3352 25.4776 34.7754 25.2336C35.2156 25.0017 35.6313 24.7698 35.6924 24.721C35.7658 24.6722 36.3283 24.3549 36.9641 24.0376Z" stroke="#1E1E1E" stroke-width="0.239071"/>
</svg>
